<?xml version="1.0" encoding="utf-8" standalone="no"?>
<!DOCTYPE svg PUBLIC "-//W3C//DTD SVG 1.1//EN"
  "http://www.w3.org/Graphics/SVG/1.1/DTD/svg11.dtd">
<!-- Created with matplotlib (http://matplotlib.org/) -->
<svg height="288pt" version="1.1" viewBox="0 0 432 288" width="432pt" xmlns="http://www.w3.org/2000/svg" xmlns:xlink="http://www.w3.org/1999/xlink">
 <defs>
  <style type="text/css">
*{stroke-linecap:butt;stroke-linejoin:round;}
  </style>
 </defs>
 <g id="figure_1">
  <g id="patch_1">
   <path d="M 0 288 
L 432 288 
L 432 0 
L 0 0 
z
" style="fill:#ffffff;"/>
  </g>
  <g id="axes_1">
   <g id="patch_2">
    <path d="M 54 252 
L 388.8 252 
L 388.8 34.56 
L 54 34.56 
z
" style="fill:#ffffff;"/>
   </g>
   <g id="matplotlib.axis_1">
    <g id="xtick_1">
     <g id="line2d_1">
      <defs>
       <path d="M 0 0 
L 0 3.5 
" id="m5fcf5f8a19" style="stroke:#000000;stroke-width:0.8;"/>
      </defs>
      <g>
       <use style="stroke:#000000;stroke-width:0.8;" x="72.073972" xlink:href="#m5fcf5f8a19" y="252"/>
      </g>
     </g>
     <g id="text_1">
      <!-- 4 -->
      <defs>
       <path d="M 37.796875 64.3125 
L 12.890625 25.390625 
L 37.796875 25.390625 
z
M 35.203125 72.90625 
L 47.609375 72.90625 
L 47.609375 25.390625 
L 58.015625 25.390625 
L 58.015625 17.1875 
L 47.609375 17.1875 
L 47.609375 0 
L 37.796875 0 
L 37.796875 17.1875 
L 4.890625 17.1875 
L 4.890625 26.703125 
z
" id="DejaVuSans-34"/>
      </defs>
      <g transform="translate(68.892722 266.598437)scale(0.1 -0.1)">
       <use xlink:href="#DejaVuSans-34"/>
      </g>
     </g>
    </g>
    <g id="xtick_2">
     <g id="line2d_2">
      <g>
       <use style="stroke:#000000;stroke-width:0.8;" x="111.662128" xlink:href="#m5fcf5f8a19" y="252"/>
      </g>
     </g>
     <g id="text_2">
      <!-- 6 -->
      <defs>
       <path d="M 33.015625 40.375 
Q 26.375 40.375 22.484375 35.828125 
Q 18.609375 31.296875 18.609375 23.390625 
Q 18.609375 15.53125 22.484375 10.953125 
Q 26.375 6.390625 33.015625 6.390625 
Q 39.65625 6.390625 43.53125 10.953125 
Q 47.40625 15.53125 47.40625 23.390625 
Q 47.40625 31.296875 43.53125 35.828125 
Q 39.65625 40.375 33.015625 40.375 
z
M 52.59375 71.296875 
L 52.59375 62.3125 
Q 48.875 64.0625 45.09375 64.984375 
Q 41.3125 65.921875 37.59375 65.921875 
Q 27.828125 65.921875 22.671875 59.328125 
Q 17.53125 52.734375 16.796875 39.40625 
Q 19.671875 43.65625 24.015625 45.921875 
Q 28.375 48.1875 33.59375 48.1875 
Q 44.578125 48.1875 50.953125 41.515625 
Q 57.328125 34.859375 57.328125 23.390625 
Q 57.328125 12.15625 50.6875 5.359375 
Q 44.046875 -1.421875 33.015625 -1.421875 
Q 20.359375 -1.421875 13.671875 8.265625 
Q 6.984375 17.96875 6.984375 36.375 
Q 6.984375 53.65625 15.1875 63.9375 
Q 23.390625 74.21875 37.203125 74.21875 
Q 40.921875 74.21875 44.703125 73.484375 
Q 48.484375 72.75 52.59375 71.296875 
z
" id="DejaVuSans-36"/>
      </defs>
      <g transform="translate(108.480878 266.598437)scale(0.1 -0.1)">
       <use xlink:href="#DejaVuSans-36"/>
      </g>
     </g>
    </g>
    <g id="xtick_3">
     <g id="line2d_3">
      <g>
       <use style="stroke:#000000;stroke-width:0.8;" x="151.250283" xlink:href="#m5fcf5f8a19" y="252"/>
      </g>
     </g>
     <g id="text_3">
      <!-- 8 -->
      <defs>
       <path d="M 31.78125 34.625 
Q 24.75 34.625 20.71875 30.859375 
Q 16.703125 27.09375 16.703125 20.515625 
Q 16.703125 13.921875 20.71875 10.15625 
Q 24.75 6.390625 31.78125 6.390625 
Q 38.8125 6.390625 42.859375 10.171875 
Q 46.921875 13.96875 46.921875 20.515625 
Q 46.921875 27.09375 42.890625 30.859375 
Q 38.875 34.625 31.78125 34.625 
z
M 21.921875 38.8125 
Q 15.578125 40.375 12.03125 44.71875 
Q 8.5 49.078125 8.5 55.328125 
Q 8.5 64.0625 14.71875 69.140625 
Q 20.953125 74.21875 31.78125 74.21875 
Q 42.671875 74.21875 48.875 69.140625 
Q 55.078125 64.0625 55.078125 55.328125 
Q 55.078125 49.078125 51.53125 44.71875 
Q 48 40.375 41.703125 38.8125 
Q 48.828125 37.15625 52.796875 32.3125 
Q 56.78125 27.484375 56.78125 20.515625 
Q 56.78125 9.90625 50.3125 4.234375 
Q 43.84375 -1.421875 31.78125 -1.421875 
Q 19.734375 -1.421875 13.25 4.234375 
Q 6.78125 9.90625 6.78125 20.515625 
Q 6.78125 27.484375 10.78125 32.3125 
Q 14.796875 37.15625 21.921875 38.8125 
z
M 18.3125 54.390625 
Q 18.3125 48.734375 21.84375 45.5625 
Q 25.390625 42.390625 31.78125 42.390625 
Q 38.140625 42.390625 41.71875 45.5625 
Q 45.3125 48.734375 45.3125 54.390625 
Q 45.3125 60.0625 41.71875 63.234375 
Q 38.140625 66.40625 31.78125 66.40625 
Q 25.390625 66.40625 21.84375 63.234375 
Q 18.3125 60.0625 18.3125 54.390625 
z
" id="DejaVuSans-38"/>
      </defs>
      <g transform="translate(148.069033 266.598437)scale(0.1 -0.1)">
       <use xlink:href="#DejaVuSans-38"/>
      </g>
     </g>
    </g>
    <g id="xtick_4">
     <g id="line2d_4">
      <g>
       <use style="stroke:#000000;stroke-width:0.8;" x="190.838439" xlink:href="#m5fcf5f8a19" y="252"/>
      </g>
     </g>
     <g id="text_4">
      <!-- 10 -->
      <defs>
       <path d="M 12.40625 8.296875 
L 28.515625 8.296875 
L 28.515625 63.921875 
L 10.984375 60.40625 
L 10.984375 69.390625 
L 28.421875 72.90625 
L 38.28125 72.90625 
L 38.28125 8.296875 
L 54.390625 8.296875 
L 54.390625 0 
L 12.40625 0 
z
" id="DejaVuSans-31"/>
       <path d="M 31.78125 66.40625 
Q 24.171875 66.40625 20.328125 58.90625 
Q 16.5 51.421875 16.5 36.375 
Q 16.5 21.390625 20.328125 13.890625 
Q 24.171875 6.390625 31.78125 6.390625 
Q 39.453125 6.390625 43.28125 13.890625 
Q 47.125 21.390625 47.125 36.375 
Q 47.125 51.421875 43.28125 58.90625 
Q 39.453125 66.40625 31.78125 66.40625 
z
M 31.78125 74.21875 
Q 44.046875 74.21875 50.515625 64.515625 
Q 56.984375 54.828125 56.984375 36.375 
Q 56.984375 17.96875 50.515625 8.265625 
Q 44.046875 -1.421875 31.78125 -1.421875 
Q 19.53125 -1.421875 13.0625 8.265625 
Q 6.59375 17.96875 6.59375 36.375 
Q 6.59375 54.828125 13.0625 64.515625 
Q 19.53125 74.21875 31.78125 74.21875 
z
" id="DejaVuSans-30"/>
      </defs>
      <g transform="translate(184.475939 266.598437)scale(0.1 -0.1)">
       <use xlink:href="#DejaVuSans-31"/>
       <use x="63.623047" xlink:href="#DejaVuSans-30"/>
      </g>
     </g>
    </g>
    <g id="xtick_5">
     <g id="line2d_5">
      <g>
       <use style="stroke:#000000;stroke-width:0.8;" x="230.426594" xlink:href="#m5fcf5f8a19" y="252"/>
      </g>
     </g>
     <g id="text_5">
      <!-- 12 -->
      <defs>
       <path d="M 19.1875 8.296875 
L 53.609375 8.296875 
L 53.609375 0 
L 7.328125 0 
L 7.328125 8.296875 
Q 12.9375 14.109375 22.625 23.890625 
Q 32.328125 33.6875 34.8125 36.53125 
Q 39.546875 41.84375 41.421875 45.53125 
Q 43.3125 49.21875 43.3125 52.78125 
Q 43.3125 58.59375 39.234375 62.25 
Q 35.15625 65.921875 28.609375 65.921875 
Q 23.96875 65.921875 18.8125 64.3125 
Q 13.671875 62.703125 7.8125 59.421875 
L 7.8125 69.390625 
Q 13.765625 71.78125 18.9375 73 
Q 24.125 74.21875 28.421875 74.21875 
Q 39.75 74.21875 46.484375 68.546875 
Q 53.21875 62.890625 53.21875 53.421875 
Q 53.21875 48.921875 51.53125 44.890625 
Q 49.859375 40.875 45.40625 35.40625 
Q 44.1875 33.984375 37.640625 27.21875 
Q 31.109375 20.453125 19.1875 8.296875 
z
" id="DejaVuSans-32"/>
      </defs>
      <g transform="translate(224.064094 266.598437)scale(0.1 -0.1)">
       <use xlink:href="#DejaVuSans-31"/>
       <use x="63.623047" xlink:href="#DejaVuSans-32"/>
      </g>
     </g>
    </g>
    <g id="xtick_6">
     <g id="line2d_6">
      <g>
       <use style="stroke:#000000;stroke-width:0.8;" x="270.01475" xlink:href="#m5fcf5f8a19" y="252"/>
      </g>
     </g>
     <g id="text_6">
      <!-- 14 -->
      <g transform="translate(263.65225 266.598437)scale(0.1 -0.1)">
       <use xlink:href="#DejaVuSans-31"/>
       <use x="63.623047" xlink:href="#DejaVuSans-34"/>
      </g>
     </g>
    </g>
    <g id="xtick_7">
     <g id="line2d_7">
      <g>
       <use style="stroke:#000000;stroke-width:0.8;" x="309.602905" xlink:href="#m5fcf5f8a19" y="252"/>
      </g>
     </g>
     <g id="text_7">
      <!-- 16 -->
      <g transform="translate(303.240405 266.598437)scale(0.1 -0.1)">
       <use xlink:href="#DejaVuSans-31"/>
       <use x="63.623047" xlink:href="#DejaVuSans-36"/>
      </g>
     </g>
    </g>
    <g id="xtick_8">
     <g id="line2d_8">
      <g>
       <use style="stroke:#000000;stroke-width:0.8;" x="349.191061" xlink:href="#m5fcf5f8a19" y="252"/>
      </g>
     </g>
     <g id="text_8">
      <!-- 18 -->
      <g transform="translate(342.828561 266.598437)scale(0.1 -0.1)">
       <use xlink:href="#DejaVuSans-31"/>
       <use x="63.623047" xlink:href="#DejaVuSans-38"/>
      </g>
     </g>
    </g>
    <g id="xtick_9">
     <g id="line2d_9">
      <g>
       <use style="stroke:#000000;stroke-width:0.8;" x="388.779216" xlink:href="#m5fcf5f8a19" y="252"/>
      </g>
     </g>
     <g id="text_9">
      <!-- 20 -->
      <g transform="translate(382.416716 266.598437)scale(0.1 -0.1)">
       <use xlink:href="#DejaVuSans-32"/>
       <use x="63.623047" xlink:href="#DejaVuSans-30"/>
      </g>
     </g>
    </g>
    <g id="text_10">
     <!-- tme -->
     <defs>
      <path d="M 18.3125 70.21875 
L 18.3125 54.6875 
L 36.8125 54.6875 
L 36.8125 47.703125 
L 18.3125 47.703125 
L 18.3125 18.015625 
Q 18.3125 11.328125 20.140625 9.421875 
Q 21.96875 7.515625 27.59375 7.515625 
L 36.8125 7.515625 
L 36.8125 0 
L 27.59375 0 
Q 17.1875 0 13.234375 3.875 
Q 9.28125 7.765625 9.28125 18.015625 
L 9.28125 47.703125 
L 2.6875 47.703125 
L 2.6875 54.6875 
L 9.28125 54.6875 
L 9.28125 70.21875 
z
" id="DejaVuSans-74"/>
      <path d="M 52 44.1875 
Q 55.375 50.25 60.0625 53.125 
Q 64.75 56 71.09375 56 
Q 79.640625 56 84.28125 50.015625 
Q 88.921875 44.046875 88.921875 33.015625 
L 88.921875 0 
L 79.890625 0 
L 79.890625 32.71875 
Q 79.890625 40.578125 77.09375 44.375 
Q 74.3125 48.1875 68.609375 48.1875 
Q 61.625 48.1875 57.5625 43.546875 
Q 53.515625 38.921875 53.515625 30.90625 
L 53.515625 0 
L 44.484375 0 
L 44.484375 32.71875 
Q 44.484375 40.625 41.703125 44.40625 
Q 38.921875 48.1875 33.109375 48.1875 
Q 26.21875 48.1875 22.15625 43.53125 
Q 18.109375 38.875 18.109375 30.90625 
L 18.109375 0 
L 9.078125 0 
L 9.078125 54.6875 
L 18.109375 54.6875 
L 18.109375 46.1875 
Q 21.1875 51.21875 25.484375 53.609375 
Q 29.78125 56 35.6875 56 
Q 41.65625 56 45.828125 52.96875 
Q 50 49.953125 52 44.1875 
z
" id="DejaVuSans-6d"/>
      <path d="M 56.203125 29.59375 
L 56.203125 25.203125 
L 14.890625 25.203125 
Q 15.484375 15.921875 20.484375 11.0625 
Q 25.484375 6.203125 34.421875 6.203125 
Q 39.59375 6.203125 44.453125 7.46875 
Q 49.3125 8.734375 54.109375 11.28125 
L 54.109375 2.78125 
Q 49.265625 0.734375 44.1875 -0.34375 
Q 39.109375 -1.421875 33.890625 -1.421875 
Q 20.796875 -1.421875 13.15625 6.1875 
Q 5.515625 13.8125 5.515625 26.8125 
Q 5.515625 40.234375 12.765625 48.109375 
Q 20.015625 56 32.328125 56 
Q 43.359375 56 49.78125 48.890625 
Q 56.203125 41.796875 56.203125 29.59375 
z
M 47.21875 32.234375 
Q 47.125 39.59375 43.09375 43.984375 
Q 39.0625 48.390625 32.421875 48.390625 
Q 24.90625 48.390625 20.390625 44.140625 
Q 15.875 39.890625 15.1875 32.171875 
z
" id="DejaVuSans-65"/>
     </defs>
     <g transform="translate(211.492969 280.276563)scale(0.1 -0.1)">
      <use xlink:href="#DejaVuSans-74"/>
      <use x="39.208984" xlink:href="#DejaVuSans-6d"/>
      <use x="136.621094" xlink:href="#DejaVuSans-65"/>
     </g>
    </g>
   </g>
   <g id="matplotlib.axis_2">
    <g id="ytick_1">
     <g id="line2d_10">
      <defs>
       <path d="M 0 0 
L -3.5 0 
" id="m462a09480d" style="stroke:#000000;stroke-width:0.8;"/>
      </defs>
      <g>
       <use style="stroke:#000000;stroke-width:0.8;" x="54" xlink:href="#m462a09480d" y="242.205204"/>
      </g>
     </g>
     <g id="text_11">
      <!-- 0 -->
      <g transform="translate(40.6375 246.004422)scale(0.1 -0.1)">
       <use xlink:href="#DejaVuSans-30"/>
      </g>
     </g>
    </g>
    <g id="ytick_2">
     <g id="line2d_11">
      <g>
       <use style="stroke:#000000;stroke-width:0.8;" x="54" xlink:href="#m462a09480d" y="195.471952"/>
      </g>
     </g>
     <g id="text_12">
      <!-- 1000000 -->
      <g transform="translate(2.4625 199.271171)scale(0.1 -0.1)">
       <use xlink:href="#DejaVuSans-31"/>
       <use x="63.623047" xlink:href="#DejaVuSans-30"/>
       <use x="127.246094" xlink:href="#DejaVuSans-30"/>
       <use x="190.869141" xlink:href="#DejaVuSans-30"/>
       <use x="254.492188" xlink:href="#DejaVuSans-30"/>
       <use x="318.115234" xlink:href="#DejaVuSans-30"/>
       <use x="381.738281" xlink:href="#DejaVuSans-30"/>
      </g>
     </g>
    </g>
    <g id="ytick_3">
     <g id="line2d_12">
      <g>
       <use style="stroke:#000000;stroke-width:0.8;" x="54" xlink:href="#m462a09480d" y="148.738701"/>
      </g>
     </g>
     <g id="text_13">
      <!-- 2000000 -->
      <g transform="translate(2.4625 152.53792)scale(0.1 -0.1)">
       <use xlink:href="#DejaVuSans-32"/>
       <use x="63.623047" xlink:href="#DejaVuSans-30"/>
       <use x="127.246094" xlink:href="#DejaVuSans-30"/>
       <use x="190.869141" xlink:href="#DejaVuSans-30"/>
       <use x="254.492188" xlink:href="#DejaVuSans-30"/>
       <use x="318.115234" xlink:href="#DejaVuSans-30"/>
       <use x="381.738281" xlink:href="#DejaVuSans-30"/>
      </g>
     </g>
    </g>
    <g id="ytick_4">
     <g id="line2d_13">
      <g>
       <use style="stroke:#000000;stroke-width:0.8;" x="54" xlink:href="#m462a09480d" y="102.005449"/>
      </g>
     </g>
     <g id="text_14">
      <!-- 3000000 -->
      <defs>
       <path d="M 40.578125 39.3125 
Q 47.65625 37.796875 51.625 33 
Q 55.609375 28.21875 55.609375 21.1875 
Q 55.609375 10.40625 48.1875 4.484375 
Q 40.765625 -1.421875 27.09375 -1.421875 
Q 22.515625 -1.421875 17.65625 -0.515625 
Q 12.796875 0.390625 7.625 2.203125 
L 7.625 11.71875 
Q 11.71875 9.328125 16.59375 8.109375 
Q 21.484375 6.890625 26.8125 6.890625 
Q 36.078125 6.890625 40.9375 10.546875 
Q 45.796875 14.203125 45.796875 21.1875 
Q 45.796875 27.640625 41.28125 31.265625 
Q 36.765625 34.90625 28.71875 34.90625 
L 20.21875 34.90625 
L 20.21875 43.015625 
L 29.109375 43.015625 
Q 36.375 43.015625 40.234375 45.921875 
Q 44.09375 48.828125 44.09375 54.296875 
Q 44.09375 59.90625 40.109375 62.90625 
Q 36.140625 65.921875 28.71875 65.921875 
Q 24.65625 65.921875 20.015625 65.03125 
Q 15.375 64.15625 9.8125 62.3125 
L 9.8125 71.09375 
Q 15.4375 72.65625 20.34375 73.4375 
Q 25.25 74.21875 29.59375 74.21875 
Q 40.828125 74.21875 47.359375 69.109375 
Q 53.90625 64.015625 53.90625 55.328125 
Q 53.90625 49.265625 50.4375 45.09375 
Q 46.96875 40.921875 40.578125 39.3125 
z
" id="DejaVuSans-33"/>
      </defs>
      <g transform="translate(2.4625 105.804668)scale(0.1 -0.1)">
       <use xlink:href="#DejaVuSans-33"/>
       <use x="63.623047" xlink:href="#DejaVuSans-30"/>
       <use x="127.246094" xlink:href="#DejaVuSans-30"/>
       <use x="190.869141" xlink:href="#DejaVuSans-30"/>
       <use x="254.492188" xlink:href="#DejaVuSans-30"/>
       <use x="318.115234" xlink:href="#DejaVuSans-30"/>
       <use x="381.738281" xlink:href="#DejaVuSans-30"/>
      </g>
     </g>
    </g>
    <g id="ytick_5">
     <g id="line2d_14">
      <g>
       <use style="stroke:#000000;stroke-width:0.8;" x="54" xlink:href="#m462a09480d" y="55.272198"/>
      </g>
     </g>
     <g id="text_15">
      <!-- 4000000 -->
      <g transform="translate(2.4625 59.071417)scale(0.1 -0.1)">
       <use xlink:href="#DejaVuSans-34"/>
       <use x="63.623047" xlink:href="#DejaVuSans-30"/>
       <use x="127.246094" xlink:href="#DejaVuSans-30"/>
       <use x="190.869141" xlink:href="#DejaVuSans-30"/>
       <use x="254.492188" xlink:href="#DejaVuSans-30"/>
       <use x="318.115234" xlink:href="#DejaVuSans-30"/>
       <use x="381.738281" xlink:href="#DejaVuSans-30"/>
      </g>
     </g>
    </g>
   </g>
   <g id="line2d_15">
    <path clip-path="url(#pdc219ee589)" d="M 54 75.229913 
L 54.339798 167.911905 
L 54.679597 197.86862 
L 55.132881 221.401616 
L 55.472679 229.927444 
L 55.812478 233.393135 
L 56.605231 235.986877 
L 57.171341 237.2333 
L 57.284827 237.16778 
L 57.511139 237.540197 
L 57.624626 237.706801 
L 57.737782 237.658479 
L 58.07758 238.116044 
L 58.304222 238.199837 
L 58.757177 238.429811 
L 58.983489 238.83597 
L 59.210131 238.829474 
L 59.323287 238.833727 
L 59.549929 238.993741 
L 60.342682 239.390086 
L 60.456168 239.538698 
L 60.682481 239.522808 
L 61.022279 239.66441 
L 61.248921 239.670299 
L 61.362077 239.804283 
L 61.475233 239.753951 
L 61.701876 239.81162 
L 61.815032 239.818677 
L 62.041674 239.947707 
L 62.608115 240.062998 
L 62.721271 240.156558 
L 62.834427 240.095665 
L 63.174225 240.277878 
L 63.287711 240.1717 
L 63.514023 240.346716 
L 63.740666 240.282785 
L 64.080464 240.400459 
L 64.19362 240.355315 
L 64.420262 240.428218 
L 64.873217 240.513927 
L 65.213015 240.547762 
L 65.66597 240.523134 
L 66.458722 240.720955 
L 66.685365 240.764511 
L 67.138319 240.672914 
L 67.364961 240.338631 
L 67.817916 239.98944 
L 68.384356 238.864944 
L 68.497512 238.607678 
L 68.610669 238.730353 
L 68.837311 238.346065 
L 68.950467 238.221521 
L 69.177109 238.266619 
L 69.290265 238.105669 
L 69.630064 238.238252 
L 69.856706 238.130298 
L 69.969862 238.074638 
L 70.30966 238.411772 
L 70.536302 238.417146 
L 70.762945 238.371067 
L 71.102413 238.763487 
L 71.215899 238.661187 
L 71.442211 238.830455 
L 71.555697 238.826249 
L 71.668854 238.942942 
L 71.895496 238.827044 
L 72.008652 239.065524 
L 72.121808 239.002761 
L 72.461606 239.295732 
L 72.688249 239.29461 
L 73.254689 239.472664 
L 73.367845 239.62679 
L 73.481001 239.548231 
L 73.707644 239.656886 
L 74.160598 239.822602 
L 74.38724 239.886487 
L 74.613553 239.999815 
L 74.727039 239.97098 
L 74.840195 240.113376 
L 75.066837 240.067484 
L 75.293149 240.228948 
L 75.85959 240.272877 
L 75.972746 240.475279 
L 76.085902 240.403356 
L 76.199388 240.591458 
L 76.4257 240.448641 
L 76.652343 240.57655 
L 77.218783 240.70058 
L 77.558581 240.807459 
L 77.671738 240.760258 
L 77.89838 240.816665 
L 78.46449 240.934293 
L 78.577976 241.017104 
L 78.691133 240.850594 
L 78.917445 240.977054 
L 79.370729 240.991728 
L 79.710528 241.030984 
L 80.050326 241.041405 
L 81.296033 241.078652 
L 81.522675 241.135152 
L 83.108181 241.465884 
L 83.561465 241.460743 
L 83.900934 241.524814 
L 84.920329 241.603233 
L 85.373613 241.57566 
L 85.939724 241.66006 
L 86.279522 241.622767 
L 86.619321 241.660621 
L 87.412073 241.662771 
L 87.638716 241.660434 
L 87.751872 241.61758 
L 87.978514 241.690717 
L 88.884423 241.726982 
L 89.224221 241.694923 
L 89.677506 241.780492 
L 90.470258 241.747358 
L 90.810057 241.780305 
L 91.149855 241.796802 
L 91.829452 241.771612 
L 92.509048 241.822084 
L 92.622204 241.766752 
L 92.735361 241.874285 
L 92.962003 241.817878 
L 95.113949 241.893446 
L 95.340591 241.834702 
L 95.680389 241.858583 
L 96.133344 241.860779 
L 97.379051 241.8984 
L 97.605693 241.880314 
L 98.851401 241.867322 
L 99.191199 241.916953 
L 99.417841 241.919336 
L 99.75764 241.930225 
L 99.984282 241.882697 
L 100.210594 241.92186 
L 101.456631 241.92228 
L 102.815825 241.931393 
L 103.042137 241.941488 
L 103.495421 241.937048 
L 104.288174 241.956162 
L 106.100322 241.949292 
L 106.666433 241.957891 
L 106.779919 241.550751 
L 107.346029 230.27327 
L 107.459515 229.939594 
L 107.572671 230.443706 
L 107.685828 230.162886 
L 108.252268 233.480246 
L 108.592066 235.006273 
L 109.384819 237.879901 
L 109.724618 238.436027 
L 109.837774 238.472292 
L 109.95126 238.333541 
L 110.404214 238.63469 
L 110.744013 239.294703 
L 110.970655 239.636744 
L 111.310123 240.231425 
L 111.536765 240.467007 
L 111.763408 240.667633 
L 112.329518 240.930554 
L 114.368308 241.590194 
L 114.59495 241.571547 
L 114.934749 241.65978 
L 115.274547 241.703008 
L 115.500859 241.685156 
L 116.63341 241.821477 
L 117.426493 241.829094 
L 118.898843 241.936441 
L 119.125155 241.869892 
L 119.351797 241.888586 
L 119.578439 241.885501 
L 119.804752 241.900269 
L 121.050789 241.976444 
L 121.390587 241.918028 
L 121.730386 241.967285 
L 122.296496 241.98252 
L 135.095017 242.064163 
L 136.907165 242.06692 
L 137.360449 241.974996 
L 137.813404 241.91742 
L 137.92656 240.196468 
L 138.266358 196.981343 
L 138.379844 199.863195 
L 138.945955 228.254113 
L 139.285753 235.320741 
L 139.625551 238.100529 
L 140.078506 239.741473 
L 140.418304 240.484953 
L 141.324543 241.354658 
L 141.437699 241.268763 
L 141.664341 241.438825 
L 142.00414 241.472566 
L 144.495884 241.880361 
L 144.835683 241.871201 
L 145.175481 241.93803 
L 145.968234 241.953124 
L 147.440583 241.988128 
L 148.346822 242.009251 
L 149.139575 242.016308 
L 151.064879 242.034487 
L 151.291521 242.055143 
L 151.517833 241.959714 
L 151.631319 240.240257 
L 151.971118 213.657029 
L 152.424072 234.001836 
L 152.76387 237.749328 
L 153.330311 239.863541 
L 154.009578 241.010515 
L 154.689174 241.48009 
L 155.935212 241.779978 
L 156.161854 241.798858 
L 156.388166 241.815308 
L 156.727964 241.847087 
L 157.180919 241.85405 
L 157.634203 241.925785 
L 157.860516 241.949619 
L 157.974002 241.89396 
L 158.200314 241.978594 
L 158.653598 242.005138 
L 159.332865 242.027851 
L 159.559507 242.010186 
L 160.012462 242.039955 
L 160.578902 241.986632 
L 164.090042 241.98953 
L 164.203198 238.612678 
L 164.542996 151.915861 
L 164.882795 222.425776 
L 165.109437 232.154984 
L 165.335749 235.954257 
L 165.789033 238.831904 
L 166.355144 240.608842 
L 166.46863 240.693289 
L 166.694942 240.95093 
L 167.034741 241.293111 
L 167.374539 241.425459 
L 167.601181 241.522898 
L 168.054136 241.648984 
L 172.471184 242.050797 
L 173.490579 242.031636 
L 173.943864 242.053928 
L 174.509974 242.063321 
L 175.076415 242.066172 
L 175.529369 242.077855 
L 175.869168 242.087669 
L 176.09581 242.063695 
L 176.208966 241.493643 
L 176.322122 235.220826 
L 176.548764 200.844594 
L 177.001719 232.764619 
L 177.341517 237.660301 
L 177.794471 240.110432 
L 178.360912 241.237358 
L 178.474068 241.25979 
L 178.70071 241.428918 
L 178.927353 241.489998 
L 179.153665 241.560098 
L 179.380307 241.656836 
L 180.399702 241.855125 
L 180.852657 241.861107 
L 181.079299 241.966957 
L 184.25031 242.058928 
L 184.476952 241.992707 
L 184.929907 242.00869 
L 185.383191 242.010653 
L 185.609503 242.074724 
L 186.175944 242.063929 
L 186.2891 242.067621 
L 186.402586 241.934338 
L 186.515742 238.905556 
L 186.742054 191.805448 
L 186.85554 193.263385 
L 187.195339 233.710173 
L 187.421651 238.709042 
L 187.535137 232.640169 
L 187.874935 126.35567 
L 188.214734 221.974052 
L 188.441046 232.840468 
L 188.780844 237.695258 
L 189.120643 239.820032 
L 189.460441 240.598561 
L 189.800239 241.003879 
L 190.026882 241.163519 
L 190.479836 241.479109 
L 192.40514 241.902185 
L 195.123527 242.010793 
L 197.162317 242.036824 
L 197.275473 241.970976 
L 197.502115 242.015467 
L 197.615271 241.759041 
L 197.728427 238.135298 
L 197.95507 191.856668 
L 198.068226 192.107298 
L 198.408024 232.206624 
L 198.634666 238.02669 
L 198.747822 237.096465 
L 198.861308 225.734677 
L 199.087621 189.791105 
L 199.654061 234.213163 
L 199.99386 238.807369 
L 200.333658 240.230256 
L 200.673456 240.968969 
L 201.013255 241.255257 
L 201.353053 241.510607 
L 202.372118 241.799933 
L 202.59876 241.785305 
L 202.825402 241.90326 
L 203.051715 241.881856 
L 203.278357 241.931627 
L 203.618155 241.954994 
L 204.410908 241.923168 
L 205.203661 241.975136 
L 205.430303 241.983034 
L 206.1099 242.001961 
L 207.015809 242.006961 
L 208.7148 242.023178 
L 208.828286 241.652863 
L 208.941443 238.60922 
L 209.281241 193.106736 
L 209.847351 236.849339 
L 210.18715 239.878168 
L 210.526948 241.160996 
L 210.866746 241.55692 
L 210.980233 241.511215 
L 211.093389 239.090713 
L 211.206545 222.879602 
L 211.546343 73.348713 
L 211.659829 98.442833 
L 211.999298 219.757634 
L 212.22594 232.677275 
L 212.565738 237.85817 
L 212.905536 239.692824 
L 213.358491 240.794747 
L 213.585133 240.984578 
L 213.924931 241.276287 
L 214.26473 241.309187 
L 214.491042 241.479156 
L 216.529832 241.84461 
L 216.86963 241.892418 
L 219.021577 241.948124 
L 219.701173 241.996026 
L 219.927815 241.923542 
L 220.267614 241.99696 
L 220.493926 241.961116 
L 221.626807 242.003036 
L 221.739963 241.819748 
L 221.853119 239.945464 
L 221.966276 228.444644 
L 222.192918 192.15777 
L 222.306074 198.123971 
L 222.645872 233.03385 
L 222.872514 238.240168 
L 223.099157 240.030331 
L 223.438955 241.066782 
L 223.778753 241.54089 
L 223.891909 241.523739 
L 224.005066 240.484438 
L 224.118552 233.911594 
L 224.344864 202.020449 
L 224.45802 203.524559 
L 224.797818 232.270415 
L 225.024461 237.702268 
L 225.251103 239.713901 
L 225.477415 240.538182 
L 225.817213 241.150341 
L 226.49681 241.581128 
L 228.195802 241.850779 
L 231.140501 241.995605 
L 231.253987 241.814327 
L 231.367143 240.27928 
L 231.480299 229.285422 
L 231.706941 192.301709 
L 232.273052 237.366817 
L 232.499694 239.822369 
L 232.726336 240.662492 
L 232.839492 240.868726 
L 232.952649 240.326807 
L 233.066135 233.793125 
L 233.405933 177.680977 
L 233.519089 187.500194 
L 233.632245 172.988772 
L 233.972044 44.443636 
L 234.198686 120.412322 
L 234.311842 120.976345 
L 234.424998 126.009143 
L 234.991439 231.3522 
L 235.218081 236.622683 
L 235.444393 238.957149 
L 235.897677 240.390318 
L 236.010834 240.293954 
L 236.12399 236.246574 
L 236.237476 212.632122 
L 236.463788 115.701704 
L 236.577274 118.443263 
L 236.916742 220.472326 
L 237.143385 232.995155 
L 237.483183 238.016642 
L 237.822981 239.736847 
L 238.049624 240.22577 
L 238.502578 240.869334 
L 239.182175 241.290587 
L 239.521973 241.335825 
L 239.748285 241.422982 
L 240.20157 241.411953 
L 240.427882 241.556266 
L 240.654524 241.489577 
L 240.881166 241.583978 
L 240.994323 241.49168 
L 241.220965 241.629216 
L 241.447277 241.593839 
L 241.900231 241.628188 
L 242.24003 241.619916 
L 242.80647 241.679174 
L 247.789959 241.712401 
L 248.016601 241.74175 
L 251.640897 241.658191 
L 251.867539 241.697774 
L 251.980695 241.716187 
L 252.093852 241.458126 
L 252.207008 238.698901 
L 252.546806 188.753533 
L 252.886604 233.621053 
L 253.00009 234.564223 
L 253.113247 224.483347 
L 253.339889 189.682777 
L 253.453045 197.364929 
L 253.679687 227.098493 
L 253.792843 231.793876 
L 253.905999 224.752624 
L 254.132642 184.076282 
L 254.245798 187.492904 
L 254.585596 230.321545 
L 254.812238 237.077164 
L 255.152037 239.203994 
L 255.378349 239.915742 
L 255.491835 239.419948 
L 255.604991 233.230456 
L 255.944789 163.122775 
L 256.057946 161.771483 
L 256.171432 154.782806 
L 256.284588 159.747092 
L 256.51123 201.372306 
L 256.737542 181.018245 
L 256.851028 188.974535 
L 257.190497 230.137183 
L 257.417139 236.32588 
L 257.756937 239.025707 
L 257.983579 239.391021 
L 258.096736 238.836577 
L 258.209892 230.289954 
L 258.54969 94.910828 
L 259.116131 231.124563 
L 259.455929 237.395698 
L 259.682241 238.584264 
L 260.02204 239.579356 
L 260.815122 240.390785 
L 261.041435 240.467661 
L 261.154921 240.589401 
L 261.381233 240.524489 
L 261.607875 240.68441 
L 261.834517 240.637396 
L 261.947673 240.612347 
L 262.287472 240.858725 
L 262.62727 240.870221 
L 263.080225 240.826012 
L 263.533179 240.902327 
L 263.759821 240.934153 
L 263.872977 240.792925 
L 264.326262 240.984905 
L 264.439418 240.914151 
L 264.552574 240.990139 
L 264.66573 240.9299 
L 264.892372 241.018833 
L 265.119015 241.017665 
L 265.571969 240.86924 
L 265.798611 240.897654 
L 266.70452 241.068043 
L 266.818006 240.958501 
L 266.931162 241.011309 
L 267.157475 240.860221 
L 267.950557 241.004953 
L 268.063714 240.288206 
L 268.17687 232.339581 
L 268.403512 176.546995 
L 268.516668 177.719672 
L 268.856466 231.987819 
L 269.083109 237.646749 
L 269.309751 239.239558 
L 269.649219 240.085991 
L 270.21566 240.469811 
L 270.442302 240.535284 
L 270.895256 240.688382 
L 271.121899 240.60487 
L 271.235055 240.741144 
L 271.574853 240.642724 
L 271.688009 240.305777 
L 271.801495 237.106466 
L 272.140964 208.99319 
L 272.480762 233.094369 
L 272.707404 237.127496 
L 272.934046 238.634222 
L 273.273845 239.480935 
L 273.500157 239.634034 
L 273.726799 239.904432 
L 274.179754 240.150109 
L 274.29324 240.317227 
L 274.519552 239.990468 
L 275.085992 240.190813 
L 275.199149 239.417565 
L 275.312305 231.621618 
L 275.652103 137.675678 
L 275.765589 143.677536 
L 276.218544 229.853652 
L 276.445186 235.251483 
L 276.671498 237.48379 
L 277.011296 238.662169 
L 277.124453 238.937101 
L 277.237939 238.846111 
L 277.351095 233.699799 
L 277.464251 203.713828 
L 277.690893 102.92773 
L 277.804049 124.455589 
L 278.143848 224.360813 
L 278.37049 233.344532 
L 278.597132 236.373408 
L 278.93693 238.020568 
L 279.050086 238.154926 
L 279.163243 238.539073 
L 279.276729 238.457057 
L 279.503041 238.977151 
L 279.616197 238.997013 
L 279.842839 239.27587 
L 280.182638 239.143288 
L 280.295794 239.412518 
L 280.40928 239.382842 
L 280.522436 239.528183 
L 280.749078 239.47916 
L 280.862234 239.613985 
L 281.088876 239.343353 
L 281.315189 239.652587 
L 281.881629 239.405228 
L 281.994785 239.524257 
L 282.107942 239.441913 
L 282.221428 239.640249 
L 282.44774 239.568327 
L 282.561226 239.647025 
L 282.674382 239.57328 
L 282.787538 239.766195 
L 282.901024 239.682122 
L 283.127337 239.787365 
L 283.353979 239.506872 
L 283.580621 239.279468 
L 283.806933 239.454017 
L 283.920419 239.418313 
L 284.146732 239.631183 
L 284.599686 239.542016 
L 284.939484 239.665345 
L 285.05297 239.605573 
L 285.166127 239.688758 
L 285.619081 239.484207 
L 285.732567 239.596787 
L 285.958879 239.394619 
L 286.072365 236.784754 
L 286.412164 183.53156 
L 286.865118 233.645401 
L 287.091431 236.772042 
L 287.431229 237.976732 
L 287.771027 238.577208 
L 288.224312 238.964813 
L 288.450624 238.82938 
L 288.677266 239.009724 
L 288.903908 238.967758 
L 289.017064 239.096928 
L 289.130221 238.992713 
L 289.356863 239.062392 
L 289.583175 239.055616 
L 291.508809 238.999209 
L 291.735451 238.799611 
L 291.848607 238.772413 
L 292.07492 238.924389 
L 292.301562 238.953691 
L 292.414718 238.708248 
L 292.528204 238.899434 
L 292.64136 238.237177 
L 292.754516 232.929962 
L 292.981158 189.549774 
L 293.094315 190.363634 
L 293.434113 231.319207 
L 293.660755 235.774848 
L 294.000553 237.327748 
L 294.11371 237.681238 
L 294.227196 237.5888 
L 294.340352 234.479356 
L 294.453508 217.718242 
L 294.68015 154.766215 
L 294.793306 162.249144 
L 295.133105 225.410909 
L 295.359747 232.291258 
L 295.699545 235.528891 
L 295.925857 236.487951 
L 296.039343 236.554452 
L 296.265656 237.082725 
L 296.832096 237.635159 
L 297.058738 237.652076 
L 297.171895 237.832747 
L 297.285051 237.802604 
L 297.398207 237.96832 
L 297.624849 237.890556 
L 297.738005 238.016502 
L 297.851491 237.917848 
L 298.19129 238.07777 
L 298.417602 237.955562 
L 298.531088 237.976358 
L 298.644244 237.842514 
L 298.7574 237.901772 
L 298.870886 237.713531 
L 299.097198 237.978087 
L 299.323841 237.976405 
L 299.436997 237.900791 
L 299.663639 238.032672 
L 299.889951 238.029494 
L 300.003437 238.000239 
L 300.116594 237.82812 
L 300.22975 238.034962 
L 300.569548 237.857656 
L 300.683034 237.95201 
L 300.79619 237.786528 
L 301.022832 237.909016 
L 301.135989 237.903454 
L 301.249145 237.749048 
L 301.362631 237.908128 
L 301.588943 237.766246 
L 301.702429 237.823027 
L 301.815585 238.009399 
L 301.928741 237.871442 
L 302.042227 237.967245 
L 302.381696 237.817792 
L 302.495182 237.896164 
L 302.721494 237.627261 
L 302.83498 237.831672 
L 302.948136 237.734374 
L 303.061292 237.829008 
L 303.401091 237.643057 
L 304.080687 237.73872 
L 304.194174 237.525242 
L 304.647128 237.605437 
L 305.100082 237.52384 
L 305.213239 237.441356 
L 305.439881 237.584827 
L 305.553037 237.506035 
L 305.666523 237.617868 
L 305.779679 237.48379 
L 306.006321 237.506362 
L 306.119477 237.346581 
L 306.572432 237.502296 
L 307.025716 237.405699 
L 307.252029 237.419672 
L 307.591827 237.300081 
L 307.704983 237.40453 
L 307.931625 237.274659 
L 308.044781 237.353264 
L 308.158267 237.181332 
L 308.271424 237.212877 
L 308.38458 237.049077 
L 308.498066 237.41584 
L 308.611222 237.001503 
L 308.724378 237.269378 
L 308.95102 237.185912 
L 309.290819 237.142357 
L 309.403975 237.280781 
L 309.630617 237.25433 
L 309.743773 237.004167 
L 309.970415 237.24031 
L 310.083571 236.946358 
L 310.310214 237.213111 
L 310.536526 237.02772 
L 310.876324 237.127309 
L 310.98981 236.928879 
L 311.102966 237.085623 
L 311.442765 236.886259 
L 311.669407 237.008606 
L 311.782563 236.897615 
L 312.122361 236.987296 
L 312.235518 236.84018 
L 312.348674 237.049591 
L 312.801958 236.77265 
L 312.915114 236.975098 
L 313.02827 236.743208 
L 313.141756 236.9808 
L 313.254913 236.725683 
L 313.368069 236.823028 
L 313.481555 236.712271 
L 313.594711 236.866771 
L 313.707867 236.789895 
L 313.821353 236.976734 
L 314.047665 236.669697 
L 314.161151 236.83317 
L 314.274308 236.70255 
L 314.387464 236.788399 
L 314.50095 236.691661 
L 314.614106 236.814523 
L 314.840418 236.670444 
L 315.406859 236.613897 
L 315.520015 236.848732 
L 315.633501 236.694278 
L 315.859813 236.818729 
L 315.973299 236.706943 
L 316.313098 236.962621 
L 316.53941 236.726524 
L 316.766052 236.789614 
L 316.992694 236.712224 
L 317.219007 236.790502 
L 317.558805 236.970425 
L 317.671961 236.777557 
L 317.898603 236.813214 
L 318.465044 236.757555 
L 318.5782 236.87995 
L 318.691356 236.832141 
L 318.804842 236.949909 
L 319.14464 236.771295 
L 319.370953 236.903316 
L 319.484439 236.6861 
L 319.597595 236.929627 
L 319.710751 236.710869 
L 320.050549 236.920514 
L 320.163706 236.751807 
L 320.277192 236.941497 
L 320.503504 236.730824 
L 320.730146 236.910092 
L 320.843302 236.740217 
L 321.296587 236.916355 
L 321.409743 236.840039 
L 321.522899 236.916682 
L 321.862697 236.790502 
L 321.976183 236.818308 
L 322.089339 237.002624 
L 322.315652 236.803541 
L 322.429138 236.906073 
L 322.65545 236.656424 
L 322.768936 236.998418 
L 322.995248 236.847283 
L 323.108734 236.998792 
L 323.448533 236.889343 
L 324.128129 236.849433 
L 324.241286 236.732833 
L 324.354442 236.966453 
L 324.467928 236.703952 
L 324.581084 236.77251 
L 324.69424 236.665678 
L 324.920882 236.876304 
L 325.260681 236.79569 
L 325.373837 236.883455 
L 325.486993 236.682128 
L 325.826791 236.836908 
L 325.940277 236.804896 
L 326.053433 236.590577 
L 326.280076 237.018514 
L 326.619874 236.623291 
L 326.73303 236.850321 
L 326.846186 236.600438 
L 327.072828 236.95949 
L 327.525783 236.733768 
L 327.638939 236.853872 
L 327.752425 236.594596 
L 327.978737 236.955097 
L 328.092223 236.79826 
L 328.432022 236.881445 
L 328.545178 236.869481 
L 328.658334 237.03903 
L 328.77182 236.771061 
L 328.998132 236.877753 
L 329.337931 236.835226 
L 329.451417 236.708532 
L 329.564573 236.85247 
L 329.790885 236.772183 
L 329.904371 236.939581 
L 330.017527 236.746199 
L 330.130683 236.845788 
L 330.24417 236.63016 
L 330.470482 236.811252 
L 330.697124 236.910233 
L 330.81028 236.697082 
L 331.036922 236.99926 
L 331.150078 236.740965 
L 331.263565 236.837048 
L 331.376721 236.69082 
L 331.489877 236.871865 
L 331.603363 236.717131 
L 331.829675 236.972855 
L 332.056317 236.766715 
L 332.28263 236.850788 
L 332.84907 236.775174 
L 332.962226 236.860509 
L 333.075712 236.671753 
L 333.415511 236.888922 
L 333.981621 236.768117 
L 334.095107 236.731618 
L 334.208263 236.851536 
L 334.32142 236.720776 
L 334.548062 236.797699 
L 334.774374 236.69512 
L 335.001016 236.858779 
L 335.114172 236.691521 
L 335.340815 236.892754 
L 335.453971 236.764051 
L 335.567457 236.973369 
L 335.793769 236.697363 
L 335.907255 236.878267 
L 336.247054 236.682782 
L 336.36021 236.969724 
L 336.700008 236.820552 
L 336.92665 236.855555 
L 337.039806 236.664696 
L 337.266449 236.944815 
L 337.605917 236.706616 
L 337.832559 236.873126 
L 338.172357 236.800129 
L 338.285514 237.063331 
L 338.512156 236.759424 
L 338.625312 236.828029 
L 338.851954 236.754985 
L 339.078596 236.874715 
L 339.304909 236.757882 
L 339.531551 236.926215 
L 339.644707 236.802653 
L 339.984505 236.901353 
L 340.890744 236.907849 
L 341.0039 236.684932 
L 341.117056 236.864948 
L 341.343699 236.713486 
L 341.456855 236.881165 
L 341.570341 236.781109 
L 341.796653 236.94561 
L 342.023295 236.710588 
L 342.363094 236.930188 
L 342.589406 236.737694 
L 342.702892 236.83102 
L 342.929204 236.737086 
L 343.04269 236.759471 
L 343.155846 236.987483 
L 343.269003 236.733674 
L 343.495645 236.877706 
L 343.608801 236.82144 
L 343.722287 236.921589 
L 343.835443 236.721804 
L 343.948599 236.891166 
L 344.175241 236.877426 
L 344.288398 236.908457 
L 344.51504 236.777884 
L 344.628196 236.865789 
L 344.741682 236.785408 
L 344.854838 237.00412 
L 345.08115 236.713439 
L 345.307793 236.950143 
L 345.534435 236.847049 
L 345.760747 236.830693 
L 345.987389 236.835132 
L 346.100545 236.882426 
L 346.214031 236.706055 
L 346.327188 236.872005 
L 346.440344 236.835787 
L 346.55383 237.020056 
L 346.893628 236.749003 
L 347.233426 236.942011 
L 347.459739 236.695774 
L 347.572895 236.858639 
L 347.686381 236.766855 
L 347.799537 237.046881 
L 348.139335 236.818262 
L 348.365978 236.860322 
L 348.479134 236.779707 
L 348.59229 236.945049 
L 348.818932 236.834291 
L 348.932088 236.90369 
L 349.045574 236.710121 
L 349.271887 236.99024 
L 349.611685 236.733955 
L 349.838327 236.863406 
L 349.951483 236.826767 
L 350.064639 236.970472 
L 350.178125 236.833029 
L 350.291282 236.906961 
L 350.404438 236.844993 
L 350.517924 236.953554 
L 350.970878 236.735731 
L 351.19752 236.883782 
L 351.763631 236.778351 
L 351.877117 236.925795 
L 351.990273 236.780969 
L 352.103429 236.836067 
L 352.216915 236.742881 
L 352.330072 236.868687 
L 352.556384 236.775361 
L 352.66987 236.88294 
L 352.896182 236.820505 
L 353.009668 236.946451 
L 353.349467 236.799194 
L 353.575779 236.847236 
L 354.255376 236.743862 
L 354.368862 237.080155 
L 354.595174 236.795783 
L 354.70866 236.912009 
L 354.821816 236.689512 
L 355.161614 236.897942 
L 355.274771 236.645956 
L 355.501413 236.930655 
L 355.841211 236.801578 
L 356.181009 236.758957 
L 356.74712 236.759471 
L 356.860606 237.009167 
L 357.086918 236.710962 
L 357.200404 236.88752 
L 357.313561 236.653994 
L 357.426717 236.82887 
L 357.539873 236.784053 
L 357.653359 236.888689 
L 357.879671 236.758069 
L 357.993157 236.80742 
L 358.106313 236.725917 
L 358.219469 236.905045 
L 358.446112 236.839105 
L 358.672754 236.757602 
L 358.78591 236.955564 
L 358.899066 236.714934 
L 359.125708 236.794054 
L 359.352351 236.809008 
L 359.465507 236.61371 
L 359.805305 236.83317 
L 359.918461 236.720449 
L 360.25826 236.884903 
L 360.371416 236.691054 
L 360.484902 236.919252 
L 360.598058 236.756574 
L 360.711214 236.870042 
L 361.164498 236.699372 
L 361.277655 236.890465 
L 361.390811 236.697129 
L 361.617453 236.907569 
L 361.844095 236.966406 
L 362.070407 236.779613 
L 362.183893 236.809756 
L 362.410206 236.622449 
L 362.523362 236.822234 
L 362.86316 236.722272 
L 363.202958 236.945657 
L 363.316445 236.74461 
L 363.769399 236.821019 
L 363.996041 236.737694 
L 364.109197 237.007952 
L 364.33584 236.854527 
L 364.562152 236.741245 
L 364.675638 236.972528 
L 364.788794 236.629646 
L 365.015106 236.857985 
L 365.694703 236.850367 
L 365.921345 236.833123 
L 366.147987 236.965284 
L 366.3743 236.78653 
L 366.487786 236.711336 
L 366.714098 236.958181 
L 366.827584 236.951779 
L 366.94074 236.764705 
L 367.053896 236.897521 
L 367.393695 236.746339 
L 367.506851 236.952386 
L 367.620337 236.787511 
L 367.733493 236.820692 
L 367.846649 236.980847 
L 368.073291 236.77293 
L 368.526246 236.817374 
L 368.639732 236.817514 
L 368.752888 237.003138 
L 368.97953 236.750639 
L 369.432485 236.933319 
L 369.545641 236.733347 
L 369.772283 236.875977 
L 369.885439 236.738955 
L 369.998595 236.80326 
L 370.225237 236.978463 
L 370.338394 236.778165 
L 370.565036 236.944068 
L 370.678192 236.787698 
L 370.791678 236.911541 
L 370.904834 236.69054 
L 371.131476 236.858966 
L 371.244632 236.97622 
L 371.357789 236.781483 
L 371.584431 236.818822 
L 371.697587 236.669136 
L 371.924229 236.98066 
L 372.037385 236.876959 
L 372.150871 236.961265 
L 372.264027 236.783773 
L 372.377184 236.951078 
L 372.49034 236.86607 
L 372.603826 237.00426 
L 372.830138 236.85434 
L 372.943624 236.853966 
L 373.169936 236.713299 
L 373.396579 236.665117 
L 373.623221 236.896073 
L 373.736377 236.96234 
L 373.849533 236.783773 
L 373.963019 236.974958 
L 374.189331 236.889296 
L 374.302817 236.961873 
L 374.415974 236.773211 
L 374.52913 237.020336 
L 374.642616 236.708999 
L 374.868928 237.033141 
L 375.09557 236.867659 
L 375.321883 236.824711 
L 375.435369 236.782604 
L 375.548525 236.942666 
L 375.661681 236.769986 
L 375.888323 236.825318 
L 376.114965 236.767883 
L 376.228121 236.935609 
L 376.341278 236.792371 
L 376.56792 236.841582 
L 376.681076 236.746199 
L 376.907718 236.880884 
L 377.020874 236.60871 
L 377.13436 237.0695 
L 377.247516 236.825038 
L 377.360673 236.932711 
L 377.474159 236.752788 
L 377.587315 236.979865 
L 377.927113 236.776622 
L 378.040269 236.799755 
L 378.266911 236.949302 
L 378.380068 236.822748 
L 378.493224 237.000802 
L 378.60671 236.782791 
L 378.833022 236.906494 
L 378.946508 236.779193 
L 379.17282 236.848405 
L 379.965903 236.838731 
L 380.079059 237.037721 
L 380.192215 236.889156 
L 380.418858 236.904204 
L 380.64517 236.92 
L 381.551409 236.909672 
L 381.778051 236.75391 
L 382.004363 236.874622 
L 382.457648 236.8964 
L 382.570804 237.057723 
L 382.910602 236.718112 
L 383.023758 236.945189 
L 383.136914 236.804756 
L 383.363557 236.990988 
L 383.476713 236.965051 
L 383.590199 236.808541 
L 384.043153 237.001222 
L 384.156309 236.722038 
L 384.269795 236.984539 
L 384.382952 236.837002 
L 384.496108 237.019308 
L 384.72275 236.846909 
L 384.835906 236.948975 
L 385.062548 236.785642 
L 385.402347 236.82158 
L 385.515503 236.90612 
L 385.628659 236.849152 
L 385.855301 236.98094 
L 385.968457 236.923318 
L 386.081943 237.0652 
L 386.195099 236.872098 
L 386.308256 236.927851 
L 386.421742 236.743068 
L 386.534898 236.966172 
L 386.874696 236.893362 
L 386.987852 236.958835 
L 387.327651 236.812794 
L 387.554293 236.915327 
L 387.667449 236.826019 
L 387.894091 236.877893 
L 388.233889 236.659836 
L 388.573688 236.974164 
L 388.686844 236.754144 
L 388.8 236.928178 
L 388.8 236.928178 
" style="fill:none;stroke:#1f77b4;stroke-linecap:square;stroke-width:1.5;"/>
   </g>
   <g id="patch_3">
    <path d="M 54 252 
L 54 34.56 
" style="fill:none;stroke:#000000;stroke-linecap:square;stroke-linejoin:miter;stroke-width:0.8;"/>
   </g>
   <g id="patch_4">
    <path d="M 388.8 252 
L 388.8 34.56 
" style="fill:none;stroke:#000000;stroke-linecap:square;stroke-linejoin:miter;stroke-width:0.8;"/>
   </g>
   <g id="patch_5">
    <path d="M 54 252 
L 388.8 252 
" style="fill:none;stroke:#000000;stroke-linecap:square;stroke-linejoin:miter;stroke-width:0.8;"/>
   </g>
   <g id="patch_6">
    <path d="M 54 34.56 
L 388.8 34.56 
" style="fill:none;stroke:#000000;stroke-linecap:square;stroke-linejoin:miter;stroke-width:0.8;"/>
   </g>
   <g id="legend_1">
    <g id="patch_7">
     <path d="M 337.603125 57.238125 
L 381.8 57.238125 
Q 383.8 57.238125 383.8 55.238125 
L 383.8 41.56 
Q 383.8 39.56 381.8 39.56 
L 337.603125 39.56 
Q 335.603125 39.56 335.603125 41.56 
L 335.603125 55.238125 
Q 335.603125 57.238125 337.603125 57.238125 
z
" style="fill:#ffffff;opacity:0.8;stroke:#cccccc;stroke-linejoin:miter;"/>
    </g>
    <g id="line2d_16">
     <path d="M 339.603125 47.658437 
L 359.603125 47.658437 
" style="fill:none;stroke:#1f77b4;stroke-linecap:square;stroke-width:1.5;"/>
    </g>
    <g id="line2d_17"/>
    <g id="text_16">
     <!-- tic -->
     <defs>
      <path d="M 9.421875 54.6875 
L 18.40625 54.6875 
L 18.40625 0 
L 9.421875 0 
z
M 9.421875 75.984375 
L 18.40625 75.984375 
L 18.40625 64.59375 
L 9.421875 64.59375 
z
" id="DejaVuSans-69"/>
      <path d="M 48.78125 52.59375 
L 48.78125 44.1875 
Q 44.96875 46.296875 41.140625 47.34375 
Q 37.3125 48.390625 33.40625 48.390625 
Q 24.65625 48.390625 19.8125 42.84375 
Q 14.984375 37.3125 14.984375 27.296875 
Q 14.984375 17.28125 19.8125 11.734375 
Q 24.65625 6.203125 33.40625 6.203125 
Q 37.3125 6.203125 41.140625 7.25 
Q 44.96875 8.296875 48.78125 10.40625 
L 48.78125 2.09375 
Q 45.015625 0.34375 40.984375 -0.53125 
Q 36.96875 -1.421875 32.421875 -1.421875 
Q 20.0625 -1.421875 12.78125 6.34375 
Q 5.515625 14.109375 5.515625 27.296875 
Q 5.515625 40.671875 12.859375 48.328125 
Q 20.21875 56 33.015625 56 
Q 37.15625 56 41.109375 55.140625 
Q 45.0625 54.296875 48.78125 52.59375 
z
" id="DejaVuSans-63"/>
     </defs>
     <g transform="translate(367.603125 51.158437)scale(0.1 -0.1)">
      <use xlink:href="#DejaVuSans-74"/>
      <use x="39.208984" xlink:href="#DejaVuSans-69"/>
      <use x="66.992188" xlink:href="#DejaVuSans-63"/>
     </g>
    </g>
   </g>
  </g>
 </g>
 <defs>
  <clipPath id="pdc219ee589">
   <rect height="217.44" width="334.8" x="54" y="34.56"/>
  </clipPath>
 </defs>
</svg>
